#!OML:ASF X:\für Bonn\!DataBase\2005_08_11_Bastian_Final\c3d\Bastian.ASF
:FULLY-SPECIFIED
:DEGREES
203
root -5.48893 17.66 -3.38848 163.549 -43.9419 -175.492
lowerback 7.67215 -2.82806 0.645882
upperback 3.5744 -3.90499 -1.35221
thorax -0.738561 -2.01001 -1.43016
lowerneck -0.8262 -16.4402 -5.40325
upperneck -8.48315 -22.1141 16.1022
head 0.0458267 -11.5082 5.10305
rclavicle -5.69518e-014 7.95139e-016
rhumerus -405.129 23.6047 -459.278
rradius 51.7151
rwrist -28.8121
rhand -46.8524 1087.85
rfingers 7.12502
rthumb -19.5654 -21.1827
lclavicle -5.69518e-014 7.95139e-016
lhumerus -22.1312 -4.21384 87.1378
lradius 48.8067
lwrist -163.802
lhand -22.5279 14.9743
lfingers 7.12502
lthumb 3.89902 44.9184
rfemur -2.11667 3.38543 23.0606
rtibia 34.0188
rfoot -16.7964 -8.34456
rtoes -14.2964
lfemur 3.35801 5.14378 -17.2852
ltibia 34.0179
lfoot -21.5799 -2.23791
ltoes -9.56426
204
root -5.48215 17.6828 -3.36494 163.838 -43.6233 -175.689
lowerback 7.66486 -2.74667 0.865303
upperback 3.5778 -3.7849 -1.47133
thorax -0.748923 -1.94789 -1.6854
lowerneck -0.98828 -16.383 -5.50299
upperneck -8.72822 -22.0407 16.4817
head 0.0501658 -11.4926 5.21717
rclavicle 2.28105e-014 -2.38542e-015
rhumerus -405.634 21.6409 -459.914
rradius 49.2337
rwrist -31.6328
rhand -47.2215 1086.68
rfingers 7.12502
rthumb -19.9202 -22.3203
lclavicle 2.28105e-014 -2.38542e-015
lhumerus -23.965 0.92166 85.5541
lradius 46.6669
lwrist -165.413
lhand -21.938 14.6328
lfingers 7.12502
lthumb 4.46868 44.5657
rfemur -2.09681 4.20563 23.0717
rtibia 33.4987
rfoot -16.0936 -8.66649
rtoes -13.0231
lfemur 3.71404 5.16324 -17.4244
ltibia 34.0553
lfoot -21.5252 -2.27887
ltoes -9.73175
205
root -5.47364 17.6974 -3.34059 164.074 -43.2532 -175.891
lowerback 7.7334 -2.66007 1.05872
upperback 3.60023 -3.66164 -1.58862
thorax -0.778117 -1.88551 -1.92164
lowerneck -1.21635 -16.3315 -5.51773
upperneck -8.92391 -21.9743 16.7458
head 0.0564148 -11.4753 5.28253
rclavicle 1.0958e-013 -7.95139e-016
rhumerus -406.082 19.8652 -460.423
rradius 46.8742
rwrist -34.5791
rhand -47.3846 1085.58
rfingers 7.12502
rthumb -20.077 -23.4055
lclavicle 1.0958e-013 -7.95139e-016
lhumerus -25.8323 5.63191 83.5575
lradius 44.4901
lwrist -166.397
lhand -20.8833 14.3469
lfingers 7.12502
lthumb 5.48707 44.2558
rfemur -2.10731 4.97802 23.0796
rtibia 33.089
rfoot -15.3453 -8.92289
rtoes -11.6519
lfemur 4.13964 5.30989 -17.4709
ltibia 34.1529
lfoot -21.1528 -2.55534
ltoes -8.8706
206
root -5.4634 17.707 -3.31464 164.234 -42.877 -176.006
lowerback 7.85031 -2.5842 1.29596
upperback 3.62143 -3.54891 -1.67907
thorax -0.835129 -1.82851 -2.15199
lowerneck -1.49371 -16.2993 -5.56164
upperneck -9.0565 -21.936 16.9761
head 0.0909213 -11.465 5.33197
rclavicle -3.39176e-014 -1.27222e-014
rhumerus -406.503 18.2516 -460.791
rradius 44.6528
rwrist -37.6879
rhand -47.2341 1084.73
rfingers 7.12502
rthumb -19.9324 -24.2661
lclavicle -3.39176e-014 -1.27222e-014
lhumerus -27.8242 10.3934 81.1434
lradius 42.2786
lwrist -167.335
lhand -19.6158 14.2653
lfingers 7.12502
lthumb 6.71075 44.139
rfemur -2.19053 5.56554 23.1151
rtibia 32.7944
rfoot -14.5714 -9.00659
rtoes -10.0284
lfemur 4.59749 5.48751 -17.3982
ltibia 34.2978
lfoot -20.5279 -2.95419
ltoes -8.69879
207
root -5.45284 17.7087 -3.28698 164.337 -42.4598 -176.104
lowerback 8.00006 -2.50287 1.55204
upperback 3.67338 -3.42941 -1.77744
thorax -0.878162 -1.76878 -2.40183
lowerneck -1.77003 -16.2674 -5.55998
upperneck -9.20382 -21.8987 17.195
head 0.114635 -11.4576 5.37442
rclavicle -1.9456e-014 3.10104e-014
rhumerus -406.975 16.854 -461.086
rradius 42.7028
rwrist -40.833
rhand -46.8471 1083.86
rfingers 7.12502
rthumb -19.5603 -25.1728
lclavicle -1.9456e-014 3.10104e-014
lhumerus -29.9341 15.1971 78.2225
lradius 40.0131
lwrist -168.326
lhand -18.2399 14.4864
lfingers 7.12502
lthumb 8.03882 44.3135
rfemur -2.32238 6.03754 23.1471
rtibia 32.6251
rfoot -13.7991 -8.9928
rtoes -8.59265
lfemur 5.16614 5.6839 -17.2838
ltibia 34.4457
lfoot -19.7917 -3.37579
ltoes -9.95205
208
root -5.44193 17.7033 -3.25685 164.439 -42.0223 -176.166
lowerback 8.15932 -2.42601 1.8363
upperback 3.69501 -3.31114 -1.86612
thorax -0.957124 -1.70935 -2.65696
lowerneck -1.98921 -16.2387 -5.56268
upperneck -9.3186 -21.8655 17.3688
head 0.134179 -11.4501 5.4089
rclavicle 3.64024e-014 -1.66979e-014
rhumerus -407.607 15.8706 -461.469
rradius 41.0166
rwrist -44.1992
rhand -46.321 1082.96
rfingers 7.12502
rthumb -19.0544 -26.1269
lclavicle 3.64024e-014 -1.66979e-014
lhumerus -32.3456 19.9693 74.7507
lradius 37.7642
lwrist -169.35
lhand -16.8891 14.931
lfingers 7.12502
lthumb 9.34235 44.704
rfemur -2.56273 6.39603 23.1761
rtibia 32.5744
rfoot -13.0702 -8.8537
rtoes -7.32924
lfemur 5.74705 5.77224 -17.1551
ltibia 34.5941
lfoot -19.0077 -3.78182
ltoes -11.2908
209
root -5.43043 17.6927 -3.22585 164.489 -41.5567 -176.229
lowerback 8.33828 -2.3434 2.09575
upperback 3.77284 -3.19033 -1.96235
thorax -0.98601 -1.64967 -2.90799
lowerneck -2.22429 -16.2009 -5.45111
upperneck -9.47715 -21.8213 17.5248
head 0.127403 -11.4434 5.42798
rclavicle -6.79347e-014 1.74931e-014
rhumerus -408.322 15.3303 -461.981
rradius 39.6514
rwrist -47.7104
rhand -45.7049 1081.91
rfingers 7.12502
rthumb -18.4618 -27.2334
lclavicle -6.79347e-014 1.74931e-014
lhumerus -35.0022 24.8744 70.5834
lradius 35.4732
lwrist -170.653
lhand -15.7752 15.5305
lfingers 7.12502
lthumb 10.417 45.2525
rfemur -2.82062 6.67206 23.1994
rtibia 32.6508
rfoot -12.4213 -8.65395
rtoes -6.09593
lfemur 6.41321 5.75518 -17.0361
ltibia 34.73
lfoot -18.1839 -4.04118
ltoes -12.375
210
root -5.41809 17.6772 -3.19278 164.503 -41.1117 -176.247
lowerback 8.54784 -2.29196 2.31561
upperback 3.83561 -3.11073 -2.00268
thorax -1.04367 -1.61127 -3.07408
lowerneck -2.33475 -16.1316 -5.45056
upperneck -9.69076 -21.727 17.7238
head 0.0970661 -11.4158 5.49005
rclavicle -1.35919e-014 1.35174e-014
rhumerus -409.161 14.9425 -462.445
rradius 38.5284
rwrist -50.8706
rhand -44.9985 1080.63
rfingers 7.12502
rthumb -17.7822 -28.5722
lclavicle -1.35919e-014 1.35174e-014
lhumerus -38.2125 29.9411 65.5689
lradius 33.1702
lwrist -172.327
lhand -15.0271 16.1999
lfingers 7.12502
lthumb 11.1387 45.8843
rfemur -3.14192 6.71119 23.2111
rtibia 32.8242
rfoot -11.9105 -8.26216
rtoes -5.62824
lfemur 7.08486 5.64858 -16.8722
ltibia 34.8738
lfoot -17.3551 -4.21384
ltoes -12.9124
211
root -5.4057 17.659 -3.15831 164.504 -40.6174 -176.255
lowerback 8.7502 -2.22621 2.57455
upperback 3.90797 -3.01005 -2.07268
thorax -1.0882 -1.56204 -3.29633
lowerneck -2.41477 -16.0673 -5.36583
upperneck -9.89596 -21.6423 17.8829
head 0.0511032 -11.3959 5.53382
rclavicle -8.69931e-014 1.98785e-014
rhumerus -410.08 14.7515 -463.082
rradius 37.5948
rwrist -53.8364
rhand -44.2453 1079.22
rfingers 7.12502
rthumb -17.0573 -30.0462
lclavicle -8.69931e-014 1.98785e-014
lhumerus -42.1473 35.199 59.2997
lradius 30.8692
lwrist -174.718
lhand -14.7811 16.7898
lfingers 7.12502
lthumb 11.3759 46.4612
rfemur -3.53375 6.37573 23.1538
rtibia 33.0689
rfoot -11.4625 -7.47647
rtoes -5.60733
lfemur 7.77105 5.62556 -16.6495
ltibia 35.0156
lfoot -16.5796 -4.315
ltoes -13.6887
212
root -5.39274 17.6394 -3.12064 164.476 -40.1355 -176.25
lowerback 8.99377 -2.18704 2.788
upperback 3.9883 -2.94711 -2.11183
thorax -1.14518 -1.53279 -3.45644
lowerneck -2.50292 -15.9845 -5.31615
upperneck -10.0974 -21.5312 18.0411
head 0.00842984 -11.3616 5.58267
rclavicle -9.98396e-014 -9.54166e-015
rhumerus -411.068 14.9271 -463.904
rradius 36.7632
rwrist -56.6088
rhand -43.4708 1077.83
rfingers 7.12502
rthumb -16.3117 -31.5016
lclavicle -9.98396e-014 -9.54166e-015
lhumerus -47.3122 40.6969 51.3207
lradius 28.6156
lwrist -178.045
lhand -14.9979 17.0613
lfingers 7.12502
lthumb 11.1668 46.7441
rfemur -3.92882 5.95476 23.0845
rtibia 33.3451
rfoot -11.0817 -6.59935
rtoes -5.63468
lfemur 8.46408 5.55526 -16.4248
ltibia 35.1747
lfoot -15.9073 -4.34738
ltoes -14.58
213
root -5.37928 17.6196 -3.08162 164.408 -39.6524 -176.2
lowerback 9.23735 -2.1503 3.0111
upperback 4.07109 -2.88576 -2.14102
thorax -1.19882 -1.50432 -3.61214
lowerneck -2.60421 -15.9046 -5.28443
upperneck -10.2334 -21.4276 18.1875
head -0.0116754 -11.326 5.6248
rclavicle -8.3738e-015 0
rhumerus -412.141 15.2745 -464.914
rradius 36.0324
rwrist -59.1838
rhand -42.5955 1076.65
rfingers 7.12502
rthumb -15.4687 -32.7485
lclavicle -8.3738e-015 0
lhumerus -54.5088 46.2847 40.6893
lradius 26.4395
lwrist -182.737
lhand -15.6174 17.0444
lfingers 7.12502
lthumb 10.5692 46.7586
rfemur -4.32443 5.60778 23.0752
rtibia 33.6371
rfoot -10.7667 -5.79878
rtoes -5.42992
lfemur 9.15338 5.37877 -16.2018
ltibia 35.3294
lfoot -15.3872 -4.27047
ltoes -15.7149
214
root -5.36634 17.6003 -3.04076 164.344 -39.1542 -176.144
lowerback 9.47391 -2.1252 3.19675
upperback 4.15714 -2.84221 -2.14942
thorax -1.24338 -1.4851 -3.72397
lowerneck -2.76837 -15.8203 -5.25216
upperneck -10.3034 -21.3217 18.3004
head -0.0069248 -11.2824 5.64863
rclavicle 6.9438e-014 2.38542e-015
rhumerus -413.361 15.8917 -466.144
rradius 35.4779
rwrist -61.5265
rhand -41.6171 1075.58
rfingers 7.12502
rthumb -14.5262 -33.8904
lclavicle 6.9438e-014 2.38542e-015
lhumerus -65.3109 51.5858 25.8319
lradius 24.6216
lwrist -189.379
lhand -16.5877 16.5688
lfingers 7.12502
lthumb 9.63318 46.3286
rfemur -4.71289 5.34 23.0822
rtibia 33.9211
rfoot -10.4558 -5.08036
rtoes -5.49087
lfemur 9.83253 5.10021 -16.0296
ltibia 35.467
lfoot -15.028 -4.08867
ltoes -17.3374
